<svg xmlns="http://www.w3.org/2000/svg" data-name="Layer 1" viewBox="0 0 64 64"><path d="M36.12,42.1a17.31,17.31,0,0,1-22.74,9.06.5.5,0,0,1-.25-.65.49.49,0,0,1,.65-.26,16.34,16.34,0,0,0,21.45-8.54.48.48,0,0,1,.64-.26A.49.49,0,0,1,36.12,42.1Z"/><path d="M60.28,17.36l-1.22-1.31.41-1.74a.52.52,0,0,0-.17-.5.51.51,0,0,0-.52-.06l-1.63.73-1.53-.91a.47.47,0,0,0-.51,0,.49.49,0,0,0-.23.47l.21,1.77L53.74,17a.54.54,0,0,0-.16.51.52.52,0,0,0,.38.35l.81.17c-2.78,1.83-5.05,0-9.54-3.63-1.37-1.12-2.92-2.38-4.72-3.72-2.4-1.76-4.59-2.45-6.54-2a6.57,6.57,0,0,0-4.14,3.2A40.68,40.68,0,0,0,23.1,9.66a.47.47,0,0,0-.56.28L20.34,15A20.18,20.18,0,0,0,1.66,27.26,20.24,20.24,0,0,0,12.23,53.83,20.22,20.22,0,0,0,34.82,21.27L37,16.18a.49.49,0,0,0-.19-.61,41.35,41.35,0,0,0-6.08-3.34A5.62,5.62,0,0,1,34.17,9.6c1.66-.35,3.6.28,5.74,1.87,1.8,1.32,3.33,2.57,4.7,3.67,3.25,2.64,5.64,4.59,8,4.59a5.11,5.11,0,0,0,3.2-1.26l.59,1.38a.47.47,0,0,0,.42.3h0a.47.47,0,0,0,.42-.25l.89-1.56L60,18.19a.48.48,0,0,0,.41-.32A.49.49,0,0,0,60.28,17.36ZM38.09,28.14A19.23,19.23,0,0,1,2.35,42.37,19.22,19.22,0,0,1,27.82,17.59a19,19,0,0,1,6,4.1.36.36,0,0,0,.09.08A19.26,19.26,0,0,1,38.09,28.14ZM36,16.17l-1.88,4.38A19.9,19.9,0,0,0,21.4,15.08l1.88-4.37A40.69,40.69,0,0,1,36,16.17Zm21.88,1.22a.51.51,0,0,0-.39.24l-.51.92-.42-1a.45.45,0,0,0-.35-.3l-1-.21.78-.69a.45.45,0,0,0,.17-.42l-.12-1,.9.54a.5.5,0,0,0,.46,0l1-.43-.24,1a.48.48,0,0,0,.12.44l.71.77Z"/><path fill="#fcd87a" d="M58.88,17.29l-1.05.1a.51.51,0,0,0-.39.24l-.51.92-.42-1a.45.45,0,0,0-.35-.3l-1-.21.78-.69a.45.45,0,0,0,.17-.42l-.12-1,.9.54a.5.5,0,0,0,.46,0l1-.43-.24,1a.48.48,0,0,0,.12.44Z"/><path fill="#b8c5dc" d="M38.09,28.14A19.26,19.26,0,0,0,34,21.77a.36.36,0,0,1-.09-.08,19,19,0,0,0-6-4.1A19.23,19.23,0,1,0,38.09,28.14Zm-2,14a17.31,17.31,0,0,1-22.74,9.06.5.5,0,0,1-.25-.65.49.49,0,0,1,.65-.26,16.34,16.34,0,0,0,21.45-8.54.48.48,0,0,1,.64-.26A.49.49,0,0,1,36.12,42.1Z"/><path fill="#c1cbda" d="M26.21,17a14.35,14.35,0,0,0-5.13-.57A17.84,17.84,0,0,0,9,22.72,22.18,22.18,0,0,0,3.51,36.37a18.11,18.11,0,0,0,4.28,13A14.57,14.57,0,0,0,12,52.63,19.22,19.22,0,0,1,26.21,17Z"/><path fill="#adc0db" d="M37.89,42.86A19.24,19.24,0,0,1,14.12,53.48a16,16,0,0,0,14.69-3.21,17.18,17.18,0,0,0,7.31-8.17.49.49,0,1,0-.89-.4,22.12,22.12,0,0,0,1.71-7.56,19.89,19.89,0,0,0-1-7.22.26.26,0,0,1,0-.1,16.26,16.26,0,0,0-3.29-5.68,14.32,14.32,0,0,0-4.48-3.4,19.15,19.15,0,0,1,5.69,4,.36.36,0,0,0,.09.08,19.28,19.28,0,0,1,3.94,21.09Z"/><path d="M58.88 12.31a.58.58 0 0 0 .19 0 .5.5 0 0 0 .45-.3l.71-1.65a.49.49 0 0 0-.9-.39l-.71 1.65A.5.5 0 0 0 58.88 12.31zM54.63 12a.51.51 0 0 0 .46.31l.18 0a.49.49 0 0 0 .28-.64L54.89 10a.49.49 0 0 0-.64-.27.49.49 0 0 0-.28.64zM50.4 14.32l1.65.71a.58.58 0 0 0 .19 0 .5.5 0 0 0 .45-.3.5.5 0 0 0-.26-.65l-1.64-.71a.5.5 0 1 0-.39.91zM59.4 21.27a.5.5 0 0 0-.64-.27.49.49 0 0 0-.28.64l.66 1.66a.5.5 0 0 0 .46.31.57.57 0 0 0 .18 0 .5.5 0 0 0 .28-.64zM63.63 18.94L62 18.23a.49.49 0 1 0-.38.9l1.64.71a.43.43 0 0 0 .19 0 .5.5 0 0 0 .46-.3A.49.49 0 0 0 63.63 18.94zM61.84 15.2a.37.37 0 0 0 .18 0l1.67-.66a.49.49 0 0 0-.36-.92l-1.67.67a.49.49 0 0 0 .18.95z"/></svg>